<svg id="レイヤー_1" data-name="レイヤー 1" xmlns="http://www.w3.org/2000/svg" viewBox="0 0 549.02 34.9"><defs><style>.cls-1{fill:#333;}</style></defs><title>アートボード 1</title><g id="レイヤー_2" data-name="レイヤー 2"><g id="レイヤー_1のコピー" data-name="レイヤー 1のコピー"><path class="cls-1" d="M7.16,17.78,9.64,14.3c-3.4-1.58-5.22-2.89-5.22-5.37,0-2.64,2.2-4.56,6.29-4.56A13.37,13.37,0,0,1,16,5.47l2.61-3.66A19.41,19.41,0,0,0,11.28.34C4.46.34,0,3.55,0,9.07,0,13.68,3.3,16,7.16,17.78Z"/><path class="cls-1" d="M12.44,15.54,10,19c3.81,1.65,6.7,3.23,6.7,6.28s-2.7,5.11-6.62,5.11a15,15,0,0,1-7-1.77L.63,32.08a20.16,20.16,0,0,0,9.07,2.2C16.47,34.28,21,30.82,21,25,21,19.88,17,17.57,12.44,15.54Z"/><path class="cls-1" d="M33.26,28.56c0,1.92-.09,3.79-.09,4.18,0,1,.29,1.2,1.44,1.2h1.63c1.15,0,1.44-.19,1.44-1.2,0-.39,0-2.31-.1-4.23V19.68c0-1.2.24-1.44,1.44-1.44H54.19c.76,0,1.13.1,1.31.46l4.36-6.1V6c0-1.92.09-3.79.09-4.13,0-1-.29-1.2-1.44-1.2H56.93c-1.15,0-1.44.19-1.44,1.2,0,.39,0,2.31.1,4.23v6.77c0,1.2-.24,1.44-1.44,1.44H39c-1.2,0-1.44-.24-1.44-1.44V5.66c0-1.61.1-3.45.1-3.79,0-1-.29-1.2-1.44-1.2H34.61c-1.15,0-1.44.19-1.44,1.2,0,.34,0,2.07.09,3.84.05,1.54.05,3.27.05,4.56V24.34C33.31,25.54,33.31,27.07,33.26,28.56Z"/><path class="cls-1" d="M59.86,24.34V17.76l-4.23,5.91v4.94c-.05,1.87-.1,3.79-.1,4.13,0,1,.29,1.2,1.44,1.2H58.6c1.15,0,1.44-.19,1.44-1.2,0-.34,0-2.21-.09-4.08C59.86,27.17,59.86,25.54,59.86,24.34Z"/><path class="cls-1" d="M73.58,10.27V21.38l4.23-5.91V5.27c0-1.64.19-3.06.19-3.4,0-1-.29-1.2-1.44-1.2H74.88c-1.15,0-1.44.19-1.44,1.2,0,.29,0,1.73.1,3.22C73.58,6.77,73.58,8.79,73.58,10.27Z"/><path class="cls-1" d="M98.74.67H97.11c-1.16,0-1.44.19-1.44,1.2,0,.29,0,1.49.09,3s0,3.84,0,5.42v12c0,5.09-3.84,8.16-9.27,8.16s-8.73-3.12-8.73-8.11V20.63l-3.88,5.43c1.21,5.24,5.64,8.41,12.42,8.41,8.12,0,13.7-4.37,13.7-11.57V4.75c0-1.44.1-2.59.1-2.88C100.18.86,99.89.67,98.74.67Z"/><path class="cls-1" d="M116.78,30.9l2.54-3.55c-2.36-2.06-3.78-5.19-3.78-9.4,0-7.58,5-13.34,13.58-13.34a15,15,0,0,1,5.61,1.16l2.62-3.66a3.05,3.05,0,0,0-.74-.38,19.18,19.18,0,0,0-7.3-1.35c-11,0-18.24,7.11-18.24,17.57C111.07,23.47,113,28,116.78,30.9Z"/><path class="cls-1" d="M137,18.29h-1.59c-1.1,0-1.39.19-1.39,1.06s.1,3.31.1,5.47v3c0,1.16-.24,1.49-1.35,1.83a16.06,16.06,0,0,1-4.46.67A15.15,15.15,0,0,1,121.84,29l-2.49,3.49A20,20,0,0,0,128,34.23a23.6,23.6,0,0,0,8.93-1.83,1.74,1.74,0,0,0,1.34-2V24.82c0-2.16.1-4.51.1-5.47S138.05,18.29,137,18.29Z"/><path class="cls-1" d="M153.23,21.88a15.37,15.37,0,0,1-.59-4.26c0-7.35,4.7-13.06,12.19-13.06h.74L168.36.7a18,18,0,0,0-3.43-.32c-9.89,0-16.66,7-16.66,17.24a18.22,18.22,0,0,0,2,8.42Z"/><path class="cls-1" d="M171.41,1.59,168.83,5.2c4.74,1.57,7.72,6,7.72,11.79,0,8.26-5.57,13.2-12.25,13.2a11,11,0,0,1-9.66-5.13L152,28.73a15.26,15.26,0,0,0,12.14,5.5c8.93,0,16.8-6.39,16.8-17.43C181,9.76,177.37,4,171.41,1.59Z"/><path class="cls-1" d="M203,32.88V24.29L203.23,12c0-.48.15-.77.34-.77s.38.15.62.44l9.51,11.85a1.27,1.27,0,0,0,1,.58,1.31,1.31,0,0,0,1-.58l9.6-11.85c.24-.29.43-.44.62-.44s.34.29.34.77l.1,5.53,5.33-7.45V9.65c-.05-3.41,0-7.15,0-7.87,0-1.2-.24-1.44-1.44-1.44h-1.58a2.31,2.31,0,0,0-2.31,1.15C225,3.36,223.53,5.23,222.14,7l-6.39,8.11c-.38.48-.67.72-.91.72s-.53-.24-.91-.72L207.4,6.82c-1.39-1.73-2.78-3.51-4.13-5.33A2.29,2.29,0,0,0,201,.34h-1.59c-1.2,0-1.39.24-1.39,1.44V9.65L197.66,24c0,3.46-.33,8.69-.33,9.36s.33,1,1.39,1h2.88C202.8,34.32,203,34.08,203,32.88Z"/><path class="cls-1" d="M231.74,15.12l-5.31,7.44v1.78c.09,2.59,0,7.15,0,8.54,0,1.2.24,1.44,1.44,1.44h2.92c1.2,0,1.35-.14,1.35-1.44,0-.72-.24-6.33-.29-8.88Z"/><path class="cls-1" d="M241.68,34.32h1.66l9-12.64c-.42-.05-.61-.19-.61-.51a2.34,2.34,0,0,1,.19-.82l4.51-11c.2-.53.39-.77.53-.77s.34.29.53.77l1.32,3.26,3.62-5.06q-1.12-2.64-2.4-5.88C259.6.52,259.36.33,258.11.33h-2.06c-1.25,0-1.49.19-1.92,1.34-1,2.59-2,4.9-2.88,7l-6.87,16.27c-1,2.36-2.06,4.76-3.55,8.12a2.13,2.13,0,0,0-.29.81C240.57,34.23,240.91,34.32,241.68,34.32Z"/><path class="cls-1" d="M269.81,24.82l-6-14-3.65,5.12,1.8,4.44a2.15,2.15,0,0,1,.2.82c0,.43-.34.53-1.11.53h-5l-3.29,4.61h10.1c1.29,0,1.58.09,2,1.15.68,1.58,1.3,3.21,2.12,5.52.43,1.15.67,1.34,1.92,1.34h3.69c.77,0,1.11-.09,1.11-.48a2.13,2.13,0,0,0-.29-.81C271.92,29.71,270.86,27.31,269.81,24.82Z"/><path class="cls-1" d="M279.69,5.66c.34,0,4.47-.14,6.48-.14h1.49c1.2,0,1.44.24,1.44,1.44V27.72L294.65,20V7c0-1.2.24-1.44,1.44-1.44h1.54c2,0,6.14.14,6.48.14a1.43,1.43,0,0,0,.86-.18l.24-.33a2.9,2.9,0,0,0,.1-.88V1.63c0-1.1-.19-1.39-1.2-1.39-.34,0-4.7.1-7,.1H286.65c-2.25,0-6.62-.1-7-.1-1,0-1.2.29-1.2,1.39V4.27C278.49,5.38,278.69,5.66,279.69,5.66Z"/><path class="cls-1" d="M289,33v.1c0,1,.29,1.2,1.39,1.2h3c1.11,0,1.4-.19,1.4-1.2,0-.32-.14-5.18-.15-8Z"/><path class="cls-1" d="M318,15.26l3.49-4.88a3.33,3.33,0,0,1-.23-1.21c0-1.83,1.26-3.27,3.77-3.75L328.82.05h-1.27c-7.3,0-12.05,3.41-12.05,9.36A8,8,0,0,0,318,15.26Z"/><path class="cls-1" d="M333.74,7.1a2,2,0,0,0,1,.44c.29,0,.48-.34.77-1l1.1-2.83a2.91,2.91,0,0,0,.24-.92c0-.43-.33-.67-1-1a20.08,20.08,0,0,0-3.7-1.23l-3.44,4.81A14.06,14.06,0,0,1,333.74,7.1Z"/><path class="cls-1" d="M327.69,14.59a30.34,30.34,0,0,1-4.14-2l-3.21,4.5a33.65,33.65,0,0,0,4.76,2.3c4,1.64,7.06,3.12,7.06,5.91s-2.35,4.37-6,4.37a15,15,0,0,1-8.21-2.5,1.87,1.87,0,0,0-.91-.48c-.34,0-.53.34-.82,1l-1.2,2.5a2.68,2.68,0,0,0-.29,1c0,.43.29.72.91,1a21.61,21.61,0,0,0,10.08,2.5c7.4,0,12-3.65,12-9.84C337.82,19.06,332.73,16.71,327.69,14.59Z"/><path class="cls-1" d="M350.2,23.14a13.7,13.7,0,0,0,.25,2.63l5.32-7.45V9.94c0-2.79.15-8.07.15-8.4,0-1-.29-1.2-1.4-1.2h-3.07c-1.1,0-1.39.19-1.39,1.2,0,.33.14,5.61.14,8.4Z"/><path class="cls-1" d="M376.75.34h-3.07c-1.11,0-1.39.19-1.39,1.2,0,.33.14,5.61.14,8.4V22.13c0,4.75-3.55,7.54-8.59,7.54-4.6,0-7.51-2.36-8-6.3l-4.16,5.83c2.05,3.61,6.17,5.7,11.91,5.7,8.5,0,14.4-4.47,14.4-11.86V9.94c0-2.79.14-8.07.14-8.4C378.14.53,377.85.34,376.75.34Z"/><path class="cls-1" d="M392.54,34.42l4.5-.08,3.58-5h-.3c-.67,0-1-.1-1-.38a1.93,1.93,0,0,1,.38-.82L412.8,9.55c1.05-1.53,2-2.78,3-4.08a3.6,3.6,0,0,0,.87-2.59V1.63c0-1.1-.19-1.39-1.2-1.39-.34,0-4.32.1-6.58.1h-9.12c-2.26,0-6.62-.1-7-.1-1,0-1.2.29-1.2,1.39V4.27c0,1.11.19,1.39,1.2,1.39.34,0,4.7-.14,7-.14h7.73c.67,0,1,.1,1,.38a2,2,0,0,1-.39.82L395.18,25.06c-1,1.39-2,2.73-3,4.08a3.65,3.65,0,0,0-.86,2.59V33C391.34,34.13,391.53,34.42,392.54,34.42Z"/><path class="cls-1" d="M415.63,29.19c-.34,0-4.66.14-7,.14h-4.36l-3.57,5h7.93c2.26,0,6.62.1,7,.1,1,0,1.2-.29,1.2-1.39V30.58C416.83,29.47,416.64,29.19,415.63,29.19Z"/><path class="cls-1" d="M426.76,34.32h3.36c1.25,0,1.49-.19,1.92-1.34.82-2.31,1.44-3.94,2.12-5.52.43-1.06.76-1.15,2-1.15h3.9l3.29-4.61H438c-.77,0-1.11-.1-1.11-.53a2.15,2.15,0,0,1,.2-.82l4.51-11c.19-.53.38-.77.53-.77s.33.29.52.77l3.47,8.54,3.68-5.15L448,8.59c-.86-2-1.82-4.32-2.83-6.91C444.74.53,444.5.34,443.25.34h-2.07c-1.24,0-1.48.19-1.92,1.34-1,2.59-2,4.9-2.88,7L429.5,24.91c-1,2.36-2.06,4.76-3.55,8.12a2.13,2.13,0,0,0-.29.81C425.66,34.23,426,34.32,426.76,34.32Z"/><path class="cls-1" d="M454.89,24.82,451.13,16l-7.38,10.33h4.18c1.3,0,1.59.09,2,1.15.67,1.58,1.3,3.21,2.11,5.52.43,1.15.67,1.34,1.92,1.34h3.7c.77,0,1.1-.09,1.1-.48a1.8,1.8,0,0,0-.29-.81C457,29.71,456,27.31,454.89,24.82Z"/><path class="cls-1" d="M490,1.18c-.31-.71-.65-.84-1.67-.84h-.77c-1.25,0-1.49.19-1.92,1.34-1,2.88-1.73,4.94-2.64,7.34l-1.62,4.22Z"/><path class="cls-1" d="M466.22,9.17l5.81,17v.14l3.86-5.41L472,8.8c-.73-2.26-1.35-4.28-2.12-7.06-.33-1.2-.57-1.39-1.82-1.39h-3.7c-.77,0-1.1.09-1.1.52a2.14,2.14,0,0,0,.19.82C464.63,4.66,465.4,6.86,466.22,9.17Z"/><path class="cls-1" d="M511.1.34h-3.36c-1.25,0-1.49.19-1.82,1.39-.82,2.78-1.44,4.8-2.16,7.06L499.1,23c-.14.43-.33.63-.48.63s-.33-.2-.48-.58L492.86,9c-.54-1.48-1.07-2.86-1.62-4.39l-18,25.19c.33,1,.65,2,1,3.11s.62,1.39,1.87,1.39h1.15c1.25,0,1.49-.19,1.92-1.34.86-2.5,1.63-4.47,2.5-6.72l5.56-14.5c.2-.43.34-.62.53-.62s.39.24.53.62l5.52,14.5c.82,2.16,1.59,4.17,2.45,6.72.43,1.15.67,1.34,1.92,1.34h1.2c1.25,0,1.49-.19,1.87-1.39.77-2.45,1.44-4.46,2.21-6.72L509.33,9.1c.81-2.3,1.53-4.46,2.69-7.44a2.14,2.14,0,0,0,.19-.82C512.21.43,511.87.34,511.1.34Z"/><path class="cls-1" d="M545.13,24.82l-.49-1.16L540.82,29c.46,1.14.92,2.4,1.48,4,.43,1.15.67,1.34,1.92,1.34h3.7c.76,0,1.1-.09,1.1-.48a2.13,2.13,0,0,0-.29-.81C547.24,29.71,546.19,27.31,545.13,24.82Z"/><path class="cls-1" d="M522.28,33c.82-2.31,1.44-3.94,2.11-5.52.44-1.06.77-1.15,2-1.15h11.76a6.17,6.17,0,0,1,.86,0l4.23-5.92-5-11.84c-.87-2-1.82-4.32-2.83-6.91C535,.53,534.72.34,533.47.34H531.4c-1.25,0-1.49.19-1.92,1.34-1,2.59-2,4.9-2.88,7L519.74,25c-1,2.36-2.07,4.76-3.55,8.12a1.8,1.8,0,0,0-.29.81c0,.39.33.48,1.1.48h3.36C521.61,34.32,521.85,34.13,522.28,33Zm5-12.63,4.52-11c.19-.53.38-.77.52-.77s.34.29.53.77l4.47,11a2.34,2.34,0,0,1,.19.82c0,.43-.34.53-1.1.53H528.2c-.77,0-1.11-.1-1.11-.53a2.43,2.43,0,0,1,.18-.84Z"/></g></g></svg>